<svg width="120" height="120" viewBox="0 0 120 120" fill="none" xmlns="http://www.w3.org/2000/svg">
  <!-- Белый фон -->
  <rect width="120" height="120" fill="white"/>
  
  <!-- QR-код паттерн -->
  <!-- Большие угловые квадраты -->
  <rect x="4" y="4" width="28" height="28" fill="black"/>
  <rect x="88" y="4" width="28" height="28" fill="black"/>
  <rect x="4" y="88" width="28" height="28" fill="black"/>
  
  <!-- Внутренние белые квадраты углов -->
  <rect x="8" y="8" width="20" height="20" fill="white"/>
  <rect x="92" y="8" width="20" height="20" fill="white"/>
  <rect x="8" y="92" width="20" height="20" fill="white"/>
  
  <!-- Центральные черные квадраты углов -->
  <rect x="12" y="12" width="12" height="12" fill="black"/>
  <rect x="96" y="12" width="12" height="12" fill="black"/>
  <rect x="12" y="96" width="12" height="12" fill="black"/>
  
  <!-- Разделительные линии -->
  <rect x="36" y="8" width="4" height="4" fill="black"/>
  <rect x="44" y="8" width="4" height="4" fill="black"/>
  <rect x="52" y="8" width="4" height="4" fill="black"/>
  <rect x="60" y="8" width="4" height="4" fill="black"/>
  <rect x="68" y="8" width="4" height="4" fill="black"/>
  <rect x="76" y="8" width="4" height="4" fill="black"/>
  <rect x="84" y="8" width="4" height="4" fill="black"/>
  
  <rect x="8" y="36" width="4" height="4" fill="black"/>
  <rect x="8" y="44" width="4" height="4" fill="black"/>
  <rect x="8" y="52" width="4" height="4" fill="black"/>
  <rect x="8" y="60" width="4" height="4" fill="black"/>
  <rect x="8" y="68" width="4" height="4" fill="black"/>
  <rect x="8" y="76" width="4" height="4" fill="black"/>
  <rect x="8" y="84" width="4" height="4" fill="black"/>
  
  <!-- Центральный квадрат выравнивания -->
  <rect x="52" y="52" width="16" height="16" fill="black"/>
  <rect x="56" y="56" width="8" height="8" fill="white"/>
  <rect x="60" y="60" width="4" height="4" fill="black"/>
  
  <!-- Паттерн данных (имитация) -->
  <rect x="36" y="16" width="4" height="4" fill="black"/>
  <rect x="44" y="16" width="4" height="4" fill="black"/>
  <rect x="60" y="16" width="4" height="4" fill="black"/>
  <rect x="68" y="16" width="4" height="4" fill="black"/>
  <rect x="76" y="16" width="4" height="4" fill="black"/>
  
  <rect x="36" y="24" width="4" height="4" fill="black"/>
  <rect x="52" y="24" width="4" height="4" fill="black"/>
  <rect x="68" y="24" width="4" height="4" fill="black"/>
  <rect x="84" y="24" width="4" height="4" fill="black"/>
  
  <rect x="16" y="36" width="4" height="4" fill="black"/>
  <rect x="24" y="36" width="4" height="4" fill="black"/>
  <rect x="36" y="36" width="4" height="4" fill="black"/>
  <rect x="44" y="36" width="4" height="4" fill="black"/>
  <rect x="76" y="36" width="4" height="4" fill="black"/>
  <rect x="84" y="36" width="4" height="4" fill="black"/>
  <rect x="92" y="36" width="4" height="4" fill="black"/>
  <rect x="100" y="36" width="4" height="4" fill="black"/>
  <rect x="108" y="36" width="4" height="4" fill="black"/>
  
  <rect x="16" y="44" width="4" height="4" fill="black"/>
  <rect x="28" y="44" width="4" height="4" fill="black"/>
  <rect x="36" y="44" width="4" height="4" fill="black"/>
  <rect x="76" y="44" width="4" height="4" fill="black"/>
  <rect x="84" y="44" width="4" height="4" fill="black"/>
  <rect x="100" y="44" width="4" height="4" fill="black"/>
  <rect x="108" y="44" width="4" height="4" fill="black"/>
  
  <rect x="16" y="76" width="4" height="4" fill="black"/>
  <rect x="24" y="76" width="4" height="4" fill="black"/>
  <rect x="36" y="76" width="4" height="4" fill="black"/>
  <rect x="44" y="76" width="4" height="4" fill="black"/>
  <rect x="76" y="76" width="4" height="4" fill="black"/>
  <rect x="84" y="76" width="4" height="4" fill="black"/>
  <rect x="92" y="76" width="4" height="4" fill="black"/>
  <rect x="100" y="76" width="4" height="4" fill="black"/>
  <rect x="108" y="76" width="4" height="4" fill="black"/>
  
  <rect x="36" y="96" width="4" height="4" fill="black"/>
  <rect x="44" y="96" width="4" height="4" fill="black"/>
  <rect x="52" y="96" width="4" height="4" fill="black"/>
  <rect x="60" y="96" width="4" height="4" fill="black"/>
  <rect x="68" y="96" width="4" height="4" fill="black"/>
  <rect x="76" y="96" width="4" height="4" fill="black"/>
  <rect x="84" y="96" width="4" height="4" fill="black"/>
  
  <rect x="36" y="104" width="4" height="4" fill="black"/>
  <rect x="52" y="104" width="4" height="4" fill="black"/>
  <rect x="68" y="104" width="4" height="4" fill="black"/>
  <rect x="84" y="104" width="4" height="4" fill="black"/>
  
  <!-- Дополнительные точки данных -->
  <rect x="24" y="52" width="4" height="4" fill="black"/>
  <rect x="32" y="52" width="4" height="4" fill="black"/>
  <rect x="40" y="52" width="4" height="4" fill="black"/>
  <rect x="76" y="52" width="4" height="4" fill="black"/>
  <rect x="84" y="52" width="4" height="4" fill="black"/>
  <rect x="92" y="52" width="4" height="4" fill="black"/>
  <rect x="100" y="52" width="4" height="4" fill="black"/>
  
  <rect x="24" y="60" width="4" height="4" fill="black"/>
  <rect x="40" y="60" width="4" height="4" fill="black"/>
  <rect x="76" y="60" width="4" height="4" fill="black"/>
  <rect x="92" y="60" width="4" height="4" fill="black"/>
  <rect x="100" y="60" width="4" height="4" fill="black"/>
</svg> 